<?xml version="1.0" encoding="UTF-8" ?>
<!DOCTYPE svg PUBLIC "-//W3C//DTD SVG 1.1//EN" "http://www.w3.org/Graphics/SVG/1.1/DTD/svg11.dtd">
<svg width="756pt" height="1348pt" viewBox="0 0 756 1348" version="1.1" xmlns="http://www.w3.org/2000/svg">
<g id="#000000ff">
</g>
<g id="#ffffffff">
<path fill="#ffffff" opacity="1.00" d=" M 373.84 105.38 C 405.49 97.94 439.63 101.10 469.18 114.76 C 505.57 131.21 534.59 163.53 546.19 201.84 C 557.46 238.13 552.97 279.04 533.75 311.86 C 520.53 334.88 500.63 353.91 477.27 366.46 C 480.46 366.99 483.69 365.79 486.89 366.63 C 507.36 369.03 526.00 383.36 533.03 402.83 C 535.48 409.24 536.47 416.14 536.51 422.99 C 536.49 482.65 536.52 542.31 536.49 601.97 C 536.35 616.20 530.55 630.35 520.34 640.31 C 509.91 651.11 494.94 657.13 479.99 657.25 C 359.33 657.24 238.67 657.25 118.01 657.25 C 101.40 657.07 84.97 649.37 74.47 636.46 C 66.33 626.61 61.64 613.83 61.99 601.02 C 62.01 540.67 62.00 480.32 61.99 419.97 C 62.27 405.71 68.73 391.80 79.08 382.05 C 90.10 371.36 105.62 365.56 120.94 366.24 C 102.87 353.99 88.72 335.94 81.77 315.20 C 74.76 294.37 74.96 271.16 82.47 250.49 C 90.55 227.97 107.15 208.72 128.04 197.12 C 150.88 184.20 178.71 180.67 204.13 187.01 C 228.40 192.92 250.31 208.13 264.18 228.92 C 266.61 201.57 277.88 175.20 295.35 154.07 C 315.25 129.83 343.32 112.53 373.84 105.38 M 390.54 145.87 C 370.94 149.12 352.43 158.39 337.98 172.01 C 323.62 185.59 313.32 203.53 309.35 222.93 C 304.38 246.12 308.52 271.08 320.64 291.45 C 330.51 308.34 345.57 322.09 363.18 330.60 C 384.59 341.16 409.76 343.53 432.87 337.78 C 449.90 333.47 465.86 324.76 478.42 312.46 C 493.00 298.56 503.11 280.01 506.76 260.20 C 510.03 242.79 508.34 224.47 501.90 207.96 C 492.53 183.57 472.94 163.41 449.01 153.02 C 430.79 144.90 410.16 142.57 390.54 145.87 M 278.65 305.61 C 273.00 330.40 257.21 352.81 235.68 366.33 C 270.06 366.15 304.44 366.28 338.83 366.26 C 313.35 352.58 291.91 331.37 278.65 305.61 Z" />
<path fill="#ffffff" opacity="1.00" d=" M 397.63 165.82 C 415.19 163.61 433.50 167.17 448.74 176.25 C 464.85 185.68 477.47 201.03 483.24 218.81 C 488.98 236.09 488.20 255.45 481.08 272.21 C 469.47 300.31 440.24 319.65 409.92 320.01 C 391.82 320.55 373.57 314.76 359.17 303.75 C 343.86 292.20 332.94 274.80 329.72 255.84 C 326.28 237.02 330.42 216.95 340.95 200.98 C 353.45 181.67 374.81 168.51 397.63 165.82 Z" />
<path fill="#ffffff" opacity="1.00" d=" M 562.04 479.28 C 609.98 452.65 657.83 425.86 705.76 399.22 C 705.73 475.99 705.78 552.75 705.74 629.52 C 657.84 604.99 609.92 580.48 562.00 556.00 C 562.03 530.42 561.94 504.85 562.04 479.28 Z" />
<path fill="#ffffff" opacity="1.00" d=" M 65.00 750.00 C 89.50 750.00 114.00 749.99 138.51 750.01 C 138.54 839.97 138.41 929.94 138.57 1019.90 C 129.55 1020.11 120.51 1019.96 111.49 1019.98 C 111.51 938.24 111.49 856.50 111.49 774.76 C 96.00 774.75 80.50 774.75 65.00 774.75 C 65.00 766.50 65.00 758.25 65.00 750.00 Z" />
<path fill="#ffffff" opacity="1.00" d=" M 233.58 750.80 C 250.51 749.02 268.00 751.88 283.22 759.59 C 302.47 768.81 317.68 786.00 324.75 806.12 C 329.69 820.50 330.71 835.89 330.50 850.99 C 330.50 870.98 330.50 890.97 330.50 910.96 C 330.81 928.13 329.76 945.55 324.91 962.11 C 319.12 980.74 307.08 997.87 290.05 1007.80 C 263.86 1023.12 230.09 1024.02 202.72 1011.20 C 185.47 1003.16 171.82 988.30 164.36 970.88 C 157.72 955.17 156.02 937.91 155.51 921.03 C 155.48 895.65 155.51 870.28 155.49 844.91 C 155.83 831.60 156.96 818.05 161.65 805.49 C 166.93 792.11 175.00 779.62 186.14 770.39 C 199.49 759.25 216.32 752.49 233.58 750.80 M 235.52 774.88 C 220.57 777.20 206.31 784.84 196.62 796.54 C 189.37 805.06 186.48 816.14 184.23 826.85 C 181.46 840.72 182.06 854.94 182.00 869.01 C 182.00 882.34 182.00 895.67 182.00 909.00 C 181.84 922.74 182.71 936.56 185.42 950.06 C 186.68 955.85 188.06 961.72 190.81 967.02 C 196.98 978.54 207.47 987.65 219.75 992.15 C 235.27 998.08 253.12 997.99 268.46 991.49 C 281.94 985.82 292.90 974.48 298.15 960.84 C 304.28 942.22 304.14 922.36 304.00 902.98 C 303.99 884.64 304.02 866.30 303.99 847.97 C 303.55 833.24 301.20 818.26 294.93 804.83 C 290.91 797.28 285.03 790.77 278.01 785.90 C 265.78 777.38 250.45 772.51 235.52 774.88 Z" />
<path fill="#ffffff" opacity="1.00" d=" M 605.60 750.81 C 624.82 748.72 644.71 752.79 661.32 762.76 C 675.99 771.32 687.66 784.69 694.62 800.14 C 700.61 813.57 702.30 828.41 702.75 842.97 C 702.76 861.67 702.75 880.37 702.75 899.07 C 702.91 919.83 703.24 940.99 697.43 961.13 C 691.47 981.20 678.18 999.64 659.39 1009.43 C 633.13 1023.39 600.11 1023.60 573.48 1010.50 C 552.75 1000.36 537.81 980.27 532.23 958.07 C 528.79 943.98 527.57 929.41 527.75 914.93 C 527.75 890.97 527.75 867.01 527.76 843.05 C 528.10 831.90 529.14 820.65 532.34 809.92 C 537.04 795.70 545.05 782.36 556.21 772.28 C 569.80 760.06 587.46 752.65 605.60 750.81 M 608.56 774.77 C 588.87 777.57 569.63 789.76 561.66 808.45 C 556.69 821.36 554.47 835.19 554.26 849.00 C 554.22 868.99 554.26 889.00 554.25 909.00 C 554.06 924.77 555.10 940.70 559.05 956.03 C 562.89 973.15 576.80 986.89 593.13 992.58 C 610.64 998.90 631.02 997.64 647.20 988.20 C 657.06 982.37 664.97 973.30 669.59 962.84 C 674.89 948.56 675.97 933.14 676.25 918.04 C 676.24 901.34 676.25 884.65 676.25 867.96 C 676.18 853.94 676.83 839.76 673.87 825.97 C 672.34 819.01 670.61 812.01 667.53 805.56 C 663.29 797.25 656.76 790.18 648.98 785.07 C 637.23 777.20 622.73 772.76 608.56 774.77 Z" />
<path fill="#ffffff" opacity="1.00" d=" M 394.03 759.00 C 408.45 751.01 425.67 748.57 441.83 751.48 C 459.97 754.82 476.84 765.55 486.77 781.21 C 496.26 795.76 500.15 814.06 496.59 831.13 C 492.71 847.46 481.75 862.10 466.94 870.10 C 482.13 877.16 495.16 888.94 503.14 903.73 C 512.12 920.16 514.03 939.98 509.74 958.09 C 503.99 981.89 486.56 1002.34 464.19 1012.18 C 438.77 1023.95 407.65 1021.77 384.01 1006.81 C 367.88 996.77 355.51 980.90 349.59 962.86 C 340.23 933.90 349.62 899.66 373.00 880.01 C 378.01 875.75 383.80 872.49 389.89 870.06 C 375.94 860.37 364.13 846.07 361.02 829.01 C 355.88 801.84 369.73 772.26 394.03 759.00 M 418.44 775.69 C 408.51 778.14 399.45 784.23 393.68 792.72 C 386.96 802.40 384.46 814.96 387.34 826.42 C 392.35 846.10 412.68 860.65 432.95 858.67 C 446.91 857.58 459.83 848.86 466.35 836.52 C 476.70 818.46 470.50 793.25 453.15 781.85 C 443.29 774.61 430.20 772.56 418.44 775.69 M 420.53 883.78 C 400.71 886.84 383.22 901.07 375.78 919.63 C 371.27 930.48 371.30 942.79 374.05 954.09 C 378.04 970.23 390.01 983.92 405.14 990.63 C 415.94 995.44 428.21 996.91 439.84 994.82 C 456.10 991.77 470.76 981.11 478.51 966.46 C 485.66 953.62 487.33 937.91 483.23 923.82 C 478.78 908.83 467.98 895.73 453.84 888.94 C 443.60 883.87 431.82 882.14 420.53 883.78 Z" />
<path fill="#ffffff" opacity="1.00" d=" M 64.24 1070.00 C 72.50 1070.00 80.76 1069.99 89.02 1070.00 C 94.96 1070.10 101.22 1071.16 106.01 1074.94 C 112.81 1079.90 115.89 1088.94 114.43 1097.12 C 113.20 1105.65 106.38 1112.98 98.02 1114.98 C 91.12 1116.57 84.01 1115.83 77.00 1116.00 C 77.00 1113.66 77.00 1111.32 77.00 1109.00 C 85.05 1108.45 94.25 1110.43 101.06 1104.97 C 108.12 1099.89 108.77 1088.39 102.60 1082.37 C 99.79 1079.63 96.03 1077.75 92.12 1077.31 C 85.42 1077.13 78.71 1076.89 72.00 1077.00 C 72.00 1100.00 72.00 1123.00 72.00 1146.00 C 69.41 1145.99 66.83 1145.99 64.25 1146.00 C 64.25 1120.67 64.25 1095.33 64.24 1070.00 Z" />
<path fill="#ffffff" opacity="1.00" d=" M 118.25 1070.00 C 126.19 1070.00 134.13 1069.99 142.07 1070.00 C 148.78 1070.15 155.87 1071.35 161.19 1075.75 C 169.78 1082.37 172.48 1095.24 167.60 1104.86 C 163.98 1112.48 155.87 1117.50 147.50 1117.82 C 154.75 1127.13 161.76 1136.62 168.94 1145.99 C 165.56 1146.00 162.19 1145.99 158.81 1146.00 C 150.22 1134.53 141.74 1122.99 133.14 1111.54 C 141.10 1111.44 150.17 1112.14 156.58 1106.49 C 163.00 1101.14 163.65 1090.98 158.79 1084.39 C 155.77 1080.03 150.46 1077.80 145.30 1077.40 C 138.87 1076.99 132.44 1076.95 126.00 1077.00 C 126.00 1100.00 126.00 1123.00 126.00 1146.00 C 123.41 1145.99 120.83 1145.99 118.25 1146.00 C 118.25 1120.66 118.25 1095.33 118.25 1070.00 Z" />
<path fill="#ffffff" opacity="1.00" d=" M 204.55 1070.82 C 213.37 1069.04 222.91 1069.78 230.97 1073.98 C 240.87 1078.83 248.53 1088.10 251.21 1098.81 C 253.37 1107.83 252.37 1117.73 247.75 1125.85 C 242.07 1136.44 231.19 1144.01 219.31 1145.72 C 212.38 1146.50 205.15 1146.06 198.70 1143.23 C 187.50 1138.66 178.58 1128.73 175.67 1116.94 C 173.83 1108.95 174.60 1100.38 177.88 1092.86 C 182.61 1081.84 192.88 1073.49 204.55 1070.82 M 207.54 1077.66 C 193.02 1080.28 181.62 1094.18 182.22 1108.98 C 182.24 1125.76 198.40 1140.10 215.01 1138.77 C 232.30 1138.44 247.18 1121.32 244.42 1104.09 C 242.41 1086.97 224.45 1074.03 207.54 1077.66 Z" />
<path fill="#ffffff" opacity="1.00" d=" M 256.00 1070.00 C 269.96 1070.61 284.59 1068.00 297.90 1073.41 C 312.47 1079.30 321.49 1095.45 320.20 1110.92 C 319.20 1125.22 309.40 1138.94 295.60 1143.40 C 282.85 1147.78 269.19 1145.38 256.00 1146.00 C 256.00 1120.66 256.00 1095.33 256.00 1070.00 M 264.00 1077.00 C 264.00 1097.67 264.00 1118.33 264.00 1139.00 C 271.48 1139.01 278.98 1139.07 286.43 1138.25 C 294.43 1137.47 302.13 1133.22 306.72 1126.57 C 313.02 1117.63 314.41 1105.30 309.79 1095.33 C 306.51 1087.95 300.08 1082.07 292.48 1079.37 C 283.29 1076.54 273.50 1077.18 264.00 1077.00 Z" />
<path fill="#ffffff" opacity="1.00" d=" M 324.00 1070.00 C 326.58 1069.99 329.17 1069.99 331.75 1070.00 C 331.83 1086.30 331.60 1102.61 331.87 1118.91 C 331.81 1125.51 334.33 1132.47 340.03 1136.20 C 344.43 1139.19 349.94 1138.99 355.02 1139.01 C 362.01 1138.99 369.01 1139.00 376.00 1139.00 C 376.00 1116.00 376.00 1093.00 376.00 1070.00 C 378.33 1069.99 380.66 1069.99 383.00 1070.00 C 383.00 1095.33 383.00 1120.67 383.00 1146.00 C 371.33 1146.00 359.66 1145.99 347.99 1146.01 C 340.11 1145.98 332.46 1141.61 328.41 1134.85 C 324.18 1128.42 323.98 1120.42 323.99 1112.98 C 324.01 1098.65 323.99 1084.33 324.00 1070.00 Z" />
<path fill="#ffffff" opacity="1.00" d=" M 392.55 1091.57 C 398.08 1078.95 411.32 1070.26 425.07 1069.99 C 430.55 1070.00 436.03 1069.98 441.52 1070.03 C 441.50 1072.34 441.50 1074.66 441.51 1076.99 C 432.34 1077.28 422.57 1075.88 414.06 1080.09 C 405.09 1084.22 398.69 1093.13 397.22 1102.84 C 395.42 1113.32 399.28 1124.69 407.37 1131.66 C 412.29 1135.79 418.51 1138.45 424.96 1138.76 C 430.47 1139.19 436.00 1138.90 441.52 1139.03 C 441.50 1141.34 441.50 1143.65 441.51 1145.98 C 430.10 1145.81 417.76 1147.55 407.55 1141.21 C 390.50 1131.92 384.74 1108.73 392.55 1091.57 Z" />
<path fill="#ffffff" opacity="1.00" d=" M 446.25 1070.00 C 460.41 1070.00 474.58 1070.00 488.75 1070.00 C 488.75 1072.32 488.75 1074.65 488.75 1077.00 C 483.00 1077.00 477.25 1076.99 471.50 1077.00 C 471.50 1100.00 471.50 1122.99 471.51 1145.99 C 468.92 1145.99 466.33 1145.99 463.75 1146.00 C 463.75 1123.00 463.75 1100.00 463.75 1077.00 C 457.92 1076.99 452.08 1077.00 446.25 1077.00 C 446.24 1074.66 446.24 1072.32 446.25 1070.00 Z" />
<path fill="#ffffff" opacity="1.00" d=" M 521.59 1070.81 C 530.40 1069.05 539.93 1069.79 547.98 1073.98 C 557.87 1078.83 565.53 1088.09 568.21 1098.80 C 570.44 1108.06 569.30 1118.23 564.40 1126.47 C 558.62 1136.80 547.84 1144.12 536.13 1145.75 C 529.26 1146.49 522.11 1146.04 515.72 1143.24 C 504.49 1138.67 495.55 1128.70 492.66 1116.87 C 490.84 1108.91 491.61 1100.38 494.87 1092.89 C 499.60 1081.84 509.90 1073.46 521.59 1070.81 M 524.46 1077.67 C 520.48 1078.43 516.73 1080.12 513.33 1082.29 C 500.39 1090.33 495.07 1108.87 502.74 1122.25 C 509.52 1135.39 526.27 1142.24 540.27 1137.26 C 554.59 1132.72 564.53 1116.80 561.04 1101.95 C 557.92 1085.78 540.63 1074.20 524.46 1077.67 Z" />
<path fill="#ffffff" opacity="1.00" d=" M 573.25 1070.00 C 581.17 1070.00 589.11 1069.99 597.04 1070.00 C 603.77 1070.15 610.90 1071.35 616.24 1075.78 C 624.98 1082.56 627.56 1095.81 622.29 1105.48 C 618.61 1112.69 610.87 1117.26 602.89 1117.87 C 609.56 1127.49 616.97 1136.59 623.95 1146.00 C 620.56 1146.00 617.19 1145.99 613.81 1146.00 C 605.23 1134.53 596.74 1122.99 588.15 1111.53 C 596.10 1111.45 605.16 1112.14 611.57 1106.50 C 618.24 1100.97 618.65 1090.30 613.30 1083.73 C 610.19 1079.77 605.15 1077.77 600.24 1077.39 C 593.84 1076.99 587.42 1076.95 581.00 1077.00 C 581.00 1100.00 581.00 1123.00 581.00 1146.00 C 578.41 1145.99 575.83 1145.99 573.25 1146.00 C 573.25 1120.66 573.25 1095.33 573.25 1070.00 Z" />
<path fill="#ffffff" opacity="1.00" d=" M 629.25 1070.00 C 632.79 1069.99 636.33 1070.00 639.88 1069.99 C 657.59 1095.28 675.18 1120.66 692.84 1145.99 C 689.61 1146.00 686.38 1146.01 683.16 1145.96 C 677.33 1137.63 671.36 1129.39 665.56 1121.04 C 656.12 1120.95 646.68 1121.02 637.25 1121.00 C 637.25 1129.33 637.25 1137.66 637.25 1146.00 C 634.57 1145.99 631.91 1145.99 629.25 1146.00 C 629.25 1120.66 629.25 1095.33 629.25 1070.00 M 637.18 1079.05 C 637.33 1090.69 637.21 1102.35 637.25 1114.00 C 645.09 1114.00 652.93 1114.01 660.78 1113.99 C 652.82 1102.40 645.11 1090.65 637.18 1079.05 Z" />
<path fill="#ffffff" opacity="1.00" d=" M 65.49 1167.01 C 69.22 1166.98 72.94 1167.00 76.67 1167.00 C 95.40 1193.65 114.04 1220.36 132.79 1247.00 C 129.33 1246.98 125.87 1247.06 122.42 1246.89 C 116.32 1237.83 109.97 1228.94 103.71 1219.99 C 93.73 1220.01 83.74 1219.99 73.75 1220.00 C 73.75 1229.00 73.75 1238.00 73.75 1247.00 C 71.00 1246.99 68.24 1246.99 65.49 1246.98 C 65.51 1220.32 65.50 1193.67 65.49 1167.01 M 73.61 1176.18 C 73.94 1188.44 73.66 1200.72 73.75 1213.00 C 82.11 1213.02 90.47 1212.95 98.83 1213.03 C 90.31 1200.82 82.02 1188.45 73.61 1176.18 Z" />
<path fill="#ffffff" opacity="1.00" d=" M 137.25 1167.00 C 140.00 1166.99 142.75 1166.99 145.51 1167.01 C 145.48 1183.67 145.52 1200.33 145.49 1216.99 C 145.47 1222.09 145.93 1227.56 149.03 1231.82 C 151.98 1236.62 157.38 1239.74 163.03 1239.82 C 172.76 1240.22 182.51 1239.89 192.25 1240.00 C 192.25 1215.66 192.25 1191.33 192.25 1167.00 C 194.75 1166.99 197.25 1166.99 199.75 1167.00 C 199.75 1193.67 199.75 1220.33 199.75 1247.00 C 187.17 1247.00 174.59 1247.00 162.01 1247.00 C 154.06 1246.80 146.38 1242.46 142.10 1235.75 C 137.70 1229.42 137.07 1221.40 137.24 1213.93 C 137.25 1198.28 137.24 1182.64 137.25 1167.00 Z" />
<path fill="#ffffff" opacity="1.00" d=" M 203.25 1167.00 C 218.22 1167.64 233.98 1164.83 248.19 1170.89 C 265.18 1178.05 274.61 1198.45 270.16 1216.16 C 267.09 1229.20 257.13 1240.79 244.09 1244.58 C 230.87 1248.70 216.85 1246.40 203.25 1247.00 C 203.25 1220.33 203.25 1193.67 203.25 1167.00 M 211.50 1174.00 C 211.50 1196.00 211.50 1218.00 211.50 1240.00 C 220.73 1239.91 230.06 1240.32 239.16 1238.57 C 250.00 1236.32 258.80 1227.49 261.60 1216.86 C 265.92 1203.34 260.45 1187.23 248.26 1179.74 C 237.39 1172.72 223.80 1174.42 211.50 1174.00 Z" />
<path fill="#ffffff" opacity="1.00" d=" M 279.75 1167.00 C 282.58 1166.99 285.41 1166.99 288.25 1167.00 C 288.25 1193.67 288.25 1220.33 288.25 1247.00 C 285.41 1246.99 282.58 1246.99 279.75 1247.00 C 279.75 1220.33 279.75 1193.67 279.75 1167.00 Z" />
<path fill="#ffffff" opacity="1.00" d=" M 328.41 1167.68 C 337.32 1166.06 346.85 1166.91 355.02 1171.01 C 366.09 1176.19 374.53 1186.65 377.15 1198.61 C 379.61 1209.75 376.92 1221.86 369.87 1230.85 C 360.45 1243.66 343.23 1249.67 327.81 1246.15 C 314.03 1243.06 302.03 1232.60 297.63 1219.12 C 292.42 1203.57 298.36 1185.22 311.45 1175.43 C 316.45 1171.65 322.26 1168.91 328.41 1167.68 M 330.56 1174.70 C 315.52 1177.47 303.73 1191.63 303.73 1206.93 C 303.13 1224.58 319.44 1240.40 336.98 1239.79 C 352.99 1240.15 367.77 1227.02 369.67 1211.18 C 371.68 1197.32 363.34 1183.01 350.70 1177.25 C 344.49 1174.23 337.33 1173.55 330.56 1174.70 Z" />
<path fill="#ffffff" opacity="1.00" d=" M 381.35 1167.00 C 384.81 1167.00 388.27 1166.91 391.73 1167.13 C 405.49 1187.36 419.67 1207.31 433.29 1227.63 C 435.58 1230.63 437.14 1234.27 440.12 1236.68 C 440.41 1213.46 440.17 1190.23 440.25 1167.01 C 443.01 1166.97 445.79 1166.97 448.56 1167.08 C 448.43 1193.72 448.53 1220.35 448.51 1246.99 C 444.73 1247.00 440.96 1246.99 437.18 1247.00 C 418.59 1220.32 399.96 1193.67 381.35 1167.00 Z" />
<path fill="#ffffff" opacity="1.00" d=" M 456.75 1167.00 C 459.58 1166.99 462.41 1166.99 465.25 1167.00 C 465.25 1193.67 465.25 1220.33 465.25 1247.00 C 462.41 1246.99 459.58 1246.99 456.75 1247.00 C 456.75 1220.33 456.75 1193.67 456.75 1167.00 Z" />
<path fill="#ffffff" opacity="1.00" d=" M 473.59 1182.53 C 475.74 1173.47 484.75 1166.81 493.99 1166.99 C 502.16 1167.01 510.33 1166.98 518.50 1167.01 C 518.49 1169.31 518.50 1171.63 518.53 1173.95 C 510.32 1174.17 502.09 1173.74 493.89 1174.19 C 486.44 1174.40 479.86 1181.59 481.03 1189.12 C 481.55 1194.62 486.74 1198.07 491.56 1199.64 C 498.72 1201.94 506.59 1203.44 512.19 1208.88 C 518.79 1215.01 520.24 1225.43 516.62 1233.50 C 512.98 1241.77 504.02 1247.36 495.00 1247.02 C 487.67 1246.98 480.33 1247.01 473.00 1247.00 C 473.00 1244.65 473.00 1242.32 473.00 1240.00 C 480.39 1239.91 487.78 1240.17 495.16 1239.87 C 500.65 1239.71 506.09 1236.64 508.71 1231.75 C 510.93 1227.75 511.17 1222.71 509.37 1218.52 C 506.99 1213.74 502.04 1211.01 497.11 1209.56 C 490.38 1207.13 482.78 1205.73 477.56 1200.45 C 472.92 1195.83 472.22 1188.64 473.59 1182.53 Z" />
<path fill="#ffffff" opacity="1.00" d=" M 522.25 1167.01 C 525.01 1166.97 527.78 1166.97 530.55 1167.07 C 530.44 1182.37 530.53 1197.68 530.50 1212.99 C 530.47 1219.34 530.10 1226.36 534.01 1231.80 C 536.96 1236.61 542.37 1239.74 548.03 1239.82 C 557.76 1240.22 567.51 1239.89 577.25 1240.00 C 577.25 1215.66 577.25 1191.33 577.25 1167.00 C 579.74 1166.99 582.25 1166.99 584.75 1167.00 C 584.75 1193.67 584.75 1220.33 584.75 1247.00 C 572.16 1247.00 559.57 1247.00 546.98 1247.00 C 539.03 1246.79 531.35 1242.44 527.09 1235.72 C 522.70 1229.41 522.07 1221.42 522.24 1213.97 C 522.25 1198.31 522.24 1182.66 522.25 1167.01 Z" />
<path fill="#ffffff" opacity="1.00" d=" M 589.43 1167.09 C 593.17 1166.93 596.92 1167.01 600.67 1167.00 C 619.40 1193.65 638.04 1220.36 656.79 1247.00 C 653.33 1246.98 649.87 1247.06 646.42 1246.90 C 640.32 1237.84 633.97 1228.95 627.71 1219.99 C 617.73 1220.01 607.74 1219.99 597.75 1220.00 C 597.75 1229.00 597.75 1237.99 597.75 1247.00 C 594.98 1247.01 592.22 1247.00 589.46 1246.94 C 589.51 1220.32 589.55 1193.70 589.43 1167.09 M 597.82 1176.81 C 597.66 1188.87 597.79 1200.93 597.75 1213.00 C 606.09 1213.00 614.43 1212.99 622.77 1213.01 C 614.34 1201.02 606.43 1188.66 597.82 1176.81 Z" />
<path fill="#ffffff" opacity="1.00" d=" M 661.00 1167.00 C 663.74 1166.99 666.49 1166.99 669.25 1167.00 C 669.25 1191.33 669.25 1215.66 669.25 1240.00 C 680.35 1240.07 691.47 1239.86 702.57 1240.10 C 702.49 1242.38 702.48 1244.68 702.51 1246.98 C 688.67 1247.02 674.83 1246.99 661.00 1247.00 C 661.00 1220.33 661.00 1193.67 661.00 1167.00 Z" />
</g>
</svg>
